<?xml version="1.0" encoding="UTF-8" standalone="no"?>
<svg
   xmlns:dc="http://purl.org/dc/elements/1.1/"
   xmlns:cc="http://creativecommons.org/ns#"
   xmlns:rdf="http://www.w3.org/1999/02/22-rdf-syntax-ns#"
   xmlns:svg="http://www.w3.org/2000/svg"
   xmlns="http://www.w3.org/2000/svg"
   version="1.1"
   id="svg4505"
   viewBox="0 0 42.723999 41.719002"
   height="41.719002"
   width="42.723999">
  <defs
     id="defs4507" />
  <metadata
     id="metadata4510">
    <rdf:RDF>
      <cc:Work
         rdf:about="">
        <dc:format>image/svg+xml</dc:format>
        <dc:type
           rdf:resource="http://purl.org/dc/dcmitype/StillImage" />
        <dc:title></dc:title>
      </cc:Work>
    </rdf:RDF>
  </metadata>
  <g
     transform="translate(0,-1010.6432)"
     id="layer1">
    <path
       id="path198"
       style="fill:#ffffff;fill-opacity:1;fill-rule:evenodd;stroke:none"
       d="m 21.36,1011.6436 c -11.24375,0 -20.36,9.1163 -20.36,20.3625 0,8.9963 5.8337499,16.6275 13.925,19.3213 1.01875,0.1862 1.39,-0.4425 1.39,-0.9825 0,-0.4825 -0.0175,-1.7638 -0.0275,-3.4625 -5.66375,1.23 -6.85875,-2.73 -6.85875,-2.73 -0.92625,-2.3525 -2.2612501,-2.9788 -2.2612501,-2.9788 -1.84875,-1.2625 0.14,-1.2375 0.14,-1.2375 2.0437501,0.1438 3.1187501,2.0988 3.1187501,2.0988 1.81625,3.1112 4.76625,2.2125 5.92625,1.6912 0.185,-1.315 0.71,-2.2125 1.2925,-2.7212 -4.52125,-0.5138 -9.275,-2.2613 -9.275,-10.0638 0,-2.2225 0.79375,-4.04 2.09625,-5.4637 -0.21,-0.515 -0.90875,-2.585 0.19875,-5.3888 0,0 1.71,-0.5475 5.6,2.0875 1.62375,-0.4525 3.36625,-0.6775 5.0975,-0.685 1.72875,0.01 3.47125,0.2325 5.0975,0.685 3.8875,-2.635 5.59375,-2.0875 5.59375,-2.0875 1.11125,2.8038 0.4125,4.8738 0.2025,5.3888 1.305,1.4237 2.09375,3.2412 2.09375,5.4637 0,7.8225 -4.76125,9.5438 -9.2975,10.0475 0.73125,0.6288 1.3825,1.8713 1.3825,3.7713 0,2.7212 -0.025,4.9175 -0.025,5.585 0,0.545 0.36625,1.1787 1.4,0.98 8.085,-2.6988 13.91375,-10.325 13.91375,-19.3188 0,-11.2462 -9.1175,-20.3625 -20.36375,-20.3625" />
  </g>
</svg>
