<?xml version="1.0" encoding="UTF-8" standalone="no"?>
<svg
   xmlns:dc="http://purl.org/dc/elements/1.1/"
   xmlns:cc="http://creativecommons.org/ns#"
   xmlns:rdf="http://www.w3.org/1999/02/22-rdf-syntax-ns#"
   xmlns:svg="http://www.w3.org/2000/svg"
   xmlns="http://www.w3.org/2000/svg"
   version="1.1"
   id="svg4167"
   viewBox="0 0 146.461 146.47"
   height="146.47"
   width="146.461">
  <defs
     id="defs4169" />
  <metadata
     id="metadata4172">
    <rdf:RDF>
      <cc:Work
         rdf:about="">
        <dc:format>image/svg+xml</dc:format>
        <dc:type
           rdf:resource="http://purl.org/dc/dcmitype/StillImage" />
        <dc:title></dc:title>
      </cc:Work>
    </rdf:RDF>
  </metadata>
  <g
     transform="translate(0,-905.89216)"
     id="layer1">
    <g
       id="g4220"
       transform="translate(-10.106488,879.00947)">
      <path
         style="fill:#8a4182;fill-opacity:1;fill-rule:nonzero;stroke:none"
         id="path36"
         d="m 77.665108,87.529985 11.34375,0 2.81788,-3.87938 0,-30.390247 -16.97863,0 0,30.392627 2.817,3.877" />
      <path
         style="fill:#8a4182;fill-opacity:1;fill-rule:nonzero;stroke:none"
         id="path38"
         d="m 70.352608,101.08561 3.50488,-10.788005 -2.81888,-3.88 -28.90287,-9.391 -5.247,16.14788 28.90712,9.392125 4.55675,-1.481" />
      <path
         style="fill:#8a4182;fill-opacity:1;fill-rule:nonzero;stroke:none"
         id="path40"
         d="m 80.984358,112.22974 -9.17625,-6.67 -4.561,1.48437 -17.86287,24.5865 13.73537,9.9785 17.86475,-24.58787 0,-4.7915" />
      <path
         style="fill:#8a4182;fill-opacity:1;fill-rule:nonzero;stroke:none"
         id="path42"
         d="m 94.868238,105.55974 -9.17825,6.6675 0.001,4.79487 17.862372,24.587 13.73701,-9.9785 -17.865882,-24.58887 -4.55663,-1.482" />
      <path
         style="fill:#8a4182;fill-opacity:1;fill-rule:nonzero;stroke:none"
         id="path44"
         d="m 92.813988,90.294605 3.50687,10.790005 4.560502,1.4795 28.90313,-9.389625 -5.24625,-16.14788 -28.904882,9.3925 -2.81937,3.8755" />
      <path
         style="fill:#8a4182;fill-opacity:1;fill-rule:nonzero;stroke:none"
         id="path46"
         d="m 83.340858,26.882858 c -40.38087,0 -73.23437,32.8475 -73.23437,73.222752 0,40.38975 32.8535,73.24712 73.23437,73.24712 40.377382,0 73.226132,-32.85737 73.226132,-73.24712 0,-40.375252 -32.84875,-73.222752 -73.226132,-73.222752 l 0,0 z m 0,14.82625 c 32.246502,0 58.398632,26.141247 58.398632,58.396502 0,32.26612 -26.15213,58.4185 -58.398632,58.4185 -32.25925,0 -58.40675,-26.15238 -58.40675,-58.4185 0,-32.255255 26.1475,-58.396502 58.40675,-58.396502" />
      <path
         style="fill:#8a4182;fill-opacity:1;fill-rule:nonzero;stroke:none"
         id="path48"
         d="m 127.69449,116.38249 -21.97138,-7.14013 1.45363,-4.476 21.97025,7.14013 -1.4525,4.476" />
      <path
         style="fill:#8a4182;fill-opacity:1;fill-rule:nonzero;stroke:none"
         id="path50"
         d="m 99.672858,81.108605 -3.80712,-2.76562 13.577622,-18.691377 3.80813,2.765 -13.578632,18.691997" />
      <path
         style="fill:#8a4182;fill-opacity:1;fill-rule:nonzero;stroke:none"
         id="path52"
         d="m 67.236358,80.937235 -13.57625,-18.690627 3.80813,-2.76625 13.57625,18.691747 -3.80813,2.76513" />
      <path
         style="fill:#8a4182;fill-opacity:1;fill-rule:nonzero;stroke:none"
         id="path54"
         d="m 38.889238,116.10174 -1.45325,-4.47513 21.96975,-7.13625 1.45262,4.47513 -21.96912,7.13625" />
      <path
         style="fill:#8a4182;fill-opacity:1;fill-rule:nonzero;stroke:none"
         id="path56"
         d="m 80.839358,146.79411 4.70508,0 0,-23.102 -4.70508,0 0,23.102 z" />
    </g>
  </g>
</svg>
