<?xml version="1.0" encoding="UTF-8" standalone="no"?>
<svg
   xmlns:dc="http://purl.org/dc/elements/1.1/"
   xmlns:cc="http://creativecommons.org/ns#"
   xmlns:rdf="http://www.w3.org/1999/02/22-rdf-syntax-ns#"
   xmlns:svg="http://www.w3.org/2000/svg"
   xmlns="http://www.w3.org/2000/svg"
   version="1.1"
   id="svg4390"
   viewBox="0 0 122.848 138.27001"
   height="138.27"
   width="122.848">
  <defs
     id="defs4392" />
  <metadata
     id="metadata4395">
    <rdf:RDF>
      <cc:Work
         rdf:about="">
        <dc:format>image/svg+xml</dc:format>
        <dc:type
           rdf:resource="http://purl.org/dc/dcmitype/StillImage" />
        <dc:title></dc:title>
      </cc:Work>
    </rdf:RDF>
  </metadata>
  <g
     transform="translate(0,-914.09214)"
     id="layer1">
    <path
       id="path22"
       style="fill:#689f63;fill-opacity:1;fill-rule:nonzero;stroke:none"
       d="m 61.41125,1051.3622 c -1.825,0 -3.64,-0.4763 -5.2375,-1.4013 l -16.6725,-9.865 c -2.48875,-1.3925 -1.27375,-1.8862 -0.4525,-2.1725 3.32125,-1.1525 3.99375,-1.4187 7.53875,-3.4287 0.36875,-0.2088 0.85875,-0.1288 1.24,0.095 l 12.80875,7.6037 c 0.46375,0.2575 1.11875,0.2575 1.54625,0 l 49.9375,-28.8225 c 0.465,-0.265 0.7625,-0.8 0.7625,-1.3512 l 0,-57.63003 c 0,-0.56375 -0.2975,-1.09 -0.775,-1.37625 l -49.91625,-28.7975 c -0.46125,-0.27 -1.07375,-0.27 -1.53875,0 l -49.90375,28.80625 c -0.485,0.2775 -0.7925,0.82125 -0.7925,1.3675 l 0,57.63003 c 0,0.5512 0.3075,1.0737 0.7875,1.335 l 13.68,7.9037 c 7.4225,3.7113 11.9675,-0.66 11.9675,-5.0512 l 0,-56.89878 c 0,-0.805 0.64625,-1.43875 1.45125,-1.43875 l 6.33125,0 c 0.7925,0 1.4475,0.63375 1.4475,1.43875 l 0,56.89878 c 0,9.9062 -5.395,15.5875 -14.78625,15.5875 -2.88625,0 -5.15875,0 -11.5025,-3.1263 l -13.095,-7.5387 C 3.0025,1019.2597 1,1015.7634 1,1012.0197 l 0,-57.63003 c 0,-3.74375 2.0025,-7.24 5.2375,-9.10125 l 49.93625,-28.85625 c 3.16,-1.78625 7.36,-1.78625 10.495,0 l 49.93375,28.85625 c 3.23375,1.87 5.245,5.3575 5.245,9.10125 l 0,57.63003 c 0,3.7437 -2.01125,7.2275 -5.245,9.11 l -49.93375,28.8312 c -1.59625,0.925 -3.4075,1.4013 -5.2575,1.4013" />
    <path
       id="path26"
       style="fill:#689f63;fill-opacity:1;fill-rule:nonzero;stroke:none"
       d="m 76.836502,1011.6587 c -21.852502,0 -26.430002,-10.03 -26.430002,-18.44378 0,-0.8 0.6425,-1.43875 1.4425,-1.43875 l 6.45625,0 c 0.72125,0 1.3225,0.51875 1.435,1.2225 0.975,6.57253 3.88125,9.89003 17.096252,9.89003 10.520001,0 14.998751,-2.38 14.998751,-7.96128 0,-3.2175 -1.27,-5.60625 -17.618751,-7.2075 -13.663752,-1.35125 -22.115002,-4.37 -22.115002,-15.3 0,-10.07625 8.4925,-16.085 22.732502,-16.085 15.997501,0 23.913751,5.5525 24.916251,17.465 0.0375,0.41125 -0.1075,0.805 -0.38125,1.11125 -0.27375,0.28625 -0.655,0.46125 -1.0575,0.46125 l -6.48125,0 c -0.67125,0 -1.265,-0.4775 -1.40125,-1.12875 -1.555,-6.91625 -5.336251,-9.12625 -15.595001,-9.12625 -11.486252,0 -12.821252,4.00125 -12.821252,7 0,3.6325 1.575,4.68875 17.083752,6.74125 15.346251,2.02875 22.636248,4.90125 22.636248,15.6875 0,10.88003 -9.072497,17.11253 -24.896248,17.11253" />
  </g>
</svg>
